# MagicaVoxel @ Ephtracy

# group
o 

# material
mtllib FOXI.mtl
usemtl palette

# normals
vn -1 0 0
vn 1 0 0
vn 0 0 1
vn 0 0 -1
vn 0 -1 0
vn 0 1 0

# texcoords
vt 0.970703 0.5
vt 0.974609 0.5
vt 0.978516 0.5
vt 0.982422 0.5

# verts
v -1.1 0 -0.4
v -1.1 0 -0.6
v -1.1 0.1 -0.5
v -1.1 0.1 -0.6
v -1.1 0.2 -0.4
v -1.1 0.2 -0.5
v -1.1 0.3 -0.5
v -1.1 0.3 -0.6
v -1.1 0.4 -0.3
v -1.1 0.4 -0.4
v -1.1 0.4 -0.9
v -1.1 0.4 -1.1
v -1.1 0.4 -1.2
v -1.1 0.5 -0.5
v -1.1 0.5 -0.6
v -1.1 0.5 -1.1
v -1.1 0.5 -1.2
v -1.1 0.6 -0.3
v -1.1 0.6 -0.5
v -1.1 0.9 -0.9
v -1.1 0.9 -1
v -1.1 0.9 -1.2
v -1.1 1.1 -0.9
v -1.1 1.1 -1
v -1 0 -0.9
v -1 0 -1.1
v -1 0.1 -1
v -1 0.1 -1.1
v -1 0.2 -0.9
v -1 0.2 -1
v -1 0.3 -0.3
v -1 0.3 -0.4
v -1 0.3 -0.6
v -1 0.3 -0.9
v -1 0.3 -1
v -1 0.3 -1.2
v -1 0.4 -0.3
v -1 0.4 -0.4
v -1 0.4 -0.9
v -1 0.4 -1
v -1 0.4 -1.1
v -1 0.4 -1.2
v -1 0.5 -0.5
v -1 0.5 -0.6
v -1 0.6 -0.3
v -1 0.6 -0.5
v -1 0.7 -0.3
v -1 0.7 -0.9
v -0.9 0.4 -1.2
v -0.9 0.4 -1.4
v -0.9 0.5 -1.2
v -0.9 0.5 -1.4
v -0.9 0.6 -1.2
v -0.9 0.6 -1.4
v -0.9 0.7 -0.8
v -0.9 0.7 -0.9
v -0.9 0.8 -0.8
v -0.9 0.8 -0.9
v -0.8 0.3 -1.2
v -0.8 0.3 -1.3
v -0.8 0.4 -1.2
v -0.8 0.4 -1.3
v -0.8 0.5 0.2
v -0.8 0.5 0.0999999
v -0.8 0.5 -5.96046e-08
v -0.8 0.5 -0.1
v -0.8 0.5 -1.4
v -0.8 0.5 -1.5
v -0.8 0.6 0.2
v -0.8 0.6 0.0999999
v -0.8 0.6 -5.96046e-08
v -0.8 0.6 -0.1
v -0.8 0.6 -0.3
v -0.8 0.6 -1.4
v -0.8 0.6 -1.5
v -0.8 0.7 -5.96046e-08
v -0.8 0.7 -0.3
v -0.8 0.7 -0.7
v -0.8 0.7 -0.8
v -0.8 0.8 -0.7
v -0.8 0.8 -0.8
v -0.8 0.8 -0.9
v -0.8 0.9 -0.8
v -0.8 0.9 -0.9
v -0.6 0 -0.9
v -0.6 0 -1.1
v -0.6 0.1 -1
v -0.6 0.1 -1.1
v -0.6 0.2 -0.9
v -0.6 0.2 -1
v -0.6 0.3 -0.9
v -0.6 0.3 -1
v -0.6 0.9 -0.9
v -0.6 0.9 -1
v -0.6 1 -0.9
v -0.6 1 -1
v -0.5 0 -0.4
v -0.5 0 -0.6
v -0.5 0.1 -0.5
v -0.5 0.1 -0.6
v -0.5 0.2 -0.4
v -0.5 0.2 -0.5
v -0.5 0.3 -0.4
v -0.5 0.3 -0.5
v -0.5 1 -0.9
v -0.5 1 -1
v -0.5 1.1 -0.9
v -0.5 1.1 -1
v -1 0 -0.4
v -1 0 -0.6
v -1 0.1 -0.5
v -1 0.1 -0.6
v -1 0.2 -0.4
v -1 0.2 -0.5
v -1 0.3 -0.4
v -1 0.3 -0.5
v -1 1 -0.9
v -1 1 -1
v -1 1.1 -0.9
v -1 1.1 -1
v -0.9 0 -0.9
v -0.9 0 -1.1
v -0.9 0.1 -1
v -0.9 0.1 -1.1
v -0.9 0.2 -0.9
v -0.9 0.2 -1
v -0.9 0.3 -0.9
v -0.9 0.3 -1
v -0.9 0.9 -0.9
v -0.9 0.9 -1
v -0.9 1 -0.9
v -0.9 1 -1
v -0.7 0.3 -1.2
v -0.7 0.3 -1.3
v -0.7 0.4 -1.2
v -0.7 0.4 -1.3
v -0.7 0.5 0.2
v -0.7 0.5 0.0999999
v -0.7 0.5 -5.96046e-08
v -0.7 0.5 -0.1
v -0.7 0.5 -1.4
v -0.7 0.5 -1.5
v -0.7 0.6 0.2
v -0.7 0.6 0.0999999
v -0.7 0.6 -5.96046e-08
v -0.7 0.6 -0.1
v -0.7 0.6 -0.3
v -0.7 0.6 -1.4
v -0.7 0.6 -1.5
v -0.7 0.7 -5.96046e-08
v -0.7 0.7 -0.3
v -0.7 0.7 -0.7
v -0.7 0.7 -0.8
v -0.7 0.8 -0.7
v -0.7 0.8 -0.8
v -0.7 0.8 -0.9
v -0.7 0.9 -0.8
v -0.7 0.9 -0.9
v -0.6 0.4 -1.2
v -0.6 0.4 -1.4
v -0.6 0.5 -1.2
v -0.6 0.5 -1.4
v -0.6 0.6 -1.2
v -0.6 0.6 -1.4
v -0.6 0.7 -0.8
v -0.6 0.7 -0.9
v -0.6 0.8 -0.8
v -0.6 0.8 -0.9
v -0.5 0 -0.9
v -0.5 0 -1.1
v -0.5 0.1 -1
v -0.5 0.1 -1.1
v -0.5 0.2 -0.9
v -0.5 0.2 -1
v -0.5 0.3 -0.3
v -0.5 0.3 -0.4
v -0.5 0.3 -0.6
v -0.5 0.3 -0.9
v -0.5 0.3 -1
v -0.5 0.3 -1.2
v -0.5 0.4 -0.3
v -0.5 0.4 -0.4
v -0.5 0.4 -0.9
v -0.5 0.4 -1
v -0.5 0.4 -1.1
v -0.5 0.4 -1.2
v -0.5 0.5 -0.5
v -0.5 0.5 -0.6
v -0.5 0.6 -0.3
v -0.5 0.6 -0.5
v -0.5 0.7 -0.3
v -0.5 0.7 -0.9
v -0.4 0 -0.4
v -0.4 0 -0.6
v -0.4 0.1 -0.5
v -0.4 0.1 -0.6
v -0.4 0.2 -0.4
v -0.4 0.2 -0.5
v -0.4 0.3 -0.5
v -0.4 0.3 -0.6
v -0.4 0.4 -0.3
v -0.4 0.4 -0.4
v -0.4 0.4 -0.9
v -0.4 0.4 -1.1
v -0.4 0.4 -1.2
v -0.4 0.5 -0.5
v -0.4 0.5 -0.6
v -0.4 0.5 -1.1
v -0.4 0.5 -1.2
v -0.4 0.6 -0.3
v -0.4 0.6 -0.5
v -0.4 0.9 -0.9
v -0.4 0.9 -1
v -0.4 0.9 -1.2
v -0.4 1.1 -0.9
v -0.4 1.1 -1
v -0.8 0.5 0.2
v -0.8 0.6 0.2
v -0.7 0.5 0.2
v -0.7 0.6 0.2
v -0.8 0.6 -5.96046e-08
v -0.8 0.7 -5.96046e-08
v -0.7 0.6 -5.96046e-08
v -0.7 0.7 -5.96046e-08
v -1.1 0.4 -0.3
v -1.1 0.6 -0.3
v -1 0.3 -0.3
v -1 0.4 -0.3
v -1 0.6 -0.3
v -1 0.7 -0.3
v -0.8 0.6 -0.3
v -0.8 0.7 -0.3
v -0.7 0.6 -0.3
v -0.7 0.7 -0.3
v -0.5 0.3 -0.3
v -0.5 0.4 -0.3
v -0.5 0.6 -0.3
v -0.5 0.7 -0.3
v -0.4 0.4 -0.3
v -0.4 0.6 -0.3
v -1.1 0 -0.4
v -1.1 0.2 -0.4
v -1.1 0.4 -0.4
v -1 0 -0.4
v -1 0.2 -0.4
v -1 0.3 -0.4
v -1 0.4 -0.4
v -0.5 0 -0.4
v -0.5 0.2 -0.4
v -0.5 0.3 -0.4
v -0.5 0.4 -0.4
v -0.4 0 -0.4
v -0.4 0.2 -0.4
v -0.4 0.4 -0.4
v -0.8 0.7 -0.7
v -0.8 0.8 -0.7
v -0.7 0.7 -0.7
v -0.7 0.8 -0.7
v -0.9 0.7 -0.8
v -0.9 0.8 -0.8
v -0.8 0.7 -0.8
v -0.8 0.8 -0.8
v -0.8 0.9 -0.8
v -0.7 0.7 -0.8
v -0.7 0.8 -0.8
v -0.7 0.9 -0.8
v -0.6 0.7 -0.8
v -0.6 0.8 -0.8
v -1.1 0.4 -0.9
v -1.1 0.9 -0.9
v -1.1 1.1 -0.9
v -1 0 -0.9
v -1 0.2 -0.9
v -1 0.3 -0.9
v -1 0.4 -0.9
v -1 0.7 -0.9
v -1 1 -0.9
v -1 1.1 -0.9
v -0.9 0 -0.9
v -0.9 0.2 -0.9
v -0.9 0.3 -0.9
v -0.9 0.7 -0.9
v -0.9 0.8 -0.9
v -0.9 0.9 -0.9
v -0.9 1 -0.9
v -0.8 0.8 -0.9
v -0.8 0.9 -0.9
v -0.7 0.8 -0.9
v -0.7 0.9 -0.9
v -0.6 0 -0.9
v -0.6 0.2 -0.9
v -0.6 0.3 -0.9
v -0.6 0.7 -0.9
v -0.6 0.8 -0.9
v -0.6 0.9 -0.9
v -0.6 1 -0.9
v -0.5 0 -0.9
v -0.5 0.2 -0.9
v -0.5 0.3 -0.9
v -0.5 0.4 -0.9
v -0.5 0.7 -0.9
v -0.5 1 -0.9
v -0.5 1.1 -0.9
v -0.4 0.4 -0.9
v -0.4 0.9 -0.9
v -0.4 1.1 -0.9
v -0.8 0.5 -0.1
v -0.8 0.6 -0.1
v -0.7 0.5 -0.1
v -0.7 0.6 -0.1
v -1.1 0.1 -0.5
v -1.1 0.2 -0.5
v -1.1 0.3 -0.5
v -1.1 0.5 -0.5
v -1.1 0.6 -0.5
v -1 0.1 -0.5
v -1 0.2 -0.5
v -1 0.3 -0.5
v -1 0.5 -0.5
v -1 0.6 -0.5
v -0.5 0.1 -0.5
v -0.5 0.2 -0.5
v -0.5 0.3 -0.5
v -0.5 0.5 -0.5
v -0.5 0.6 -0.5
v -0.4 0.1 -0.5
v -0.4 0.2 -0.5
v -0.4 0.3 -0.5
v -0.4 0.5 -0.5
v -0.4 0.6 -0.5
v -1.1 0 -0.6
v -1.1 0.1 -0.6
v -1.1 0.3 -0.6
v -1.1 0.5 -0.6
v -1 0 -0.6
v -1 0.1 -0.6
v -1 0.3 -0.6
v -1 0.5 -0.6
v -0.5 0 -0.6
v -0.5 0.1 -0.6
v -0.5 0.3 -0.6
v -0.5 0.5 -0.6
v -0.4 0 -0.6
v -0.4 0.1 -0.6
v -0.4 0.3 -0.6
v -0.4 0.5 -0.6
v -1.1 0.9 -1
v -1.1 1.1 -1
v -1 0.1 -1
v -1 0.2 -1
v -1 0.3 -1
v -1 1 -1
v -1 1.1 -1
v -0.9 0.1 -1
v -0.9 0.2 -1
v -0.9 0.3 -1
v -0.9 0.9 -1
v -0.9 1 -1
v -0.6 0.1 -1
v -0.6 0.2 -1
v -0.6 0.3 -1
v -0.6 0.9 -1
v -0.6 1 -1
v -0.5 0.1 -1
v -0.5 0.2 -1
v -0.5 0.3 -1
v -0.5 1 -1
v -0.5 1.1 -1
v -0.4 0.9 -1
v -0.4 1.1 -1
v -1 0 -1.1
v -1 0.1 -1.1
v -0.9 0 -1.1
v -0.9 0.1 -1.1
v -0.6 0 -1.1
v -0.6 0.1 -1.1
v -0.5 0 -1.1
v -0.5 0.1 -1.1
v -1.1 0.4 -1.2
v -1.1 0.5 -1.2
v -1.1 0.9 -1.2
v -1 0.3 -1.2
v -1 0.4 -1.2
v -1 0.6 -1.2
v -1 0.8 -1.2
v -0.9 0.4 -1.2
v -0.9 0.5 -1.2
v -0.9 0.6 -1.2
v -0.9 0.8 -1.2
v -0.8 0.3 -1.2
v -0.8 0.4 -1.2
v -0.8 0.6 -1.2
v -0.8 0.8 -1.2
v -0.7 0.3 -1.2
v -0.7 0.4 -1.2
v -0.7 0.6 -1.2
v -0.7 0.8 -1.2
v -0.6 0.4 -1.2
v -0.6 0.5 -1.2
v -0.6 0.6 -1.2
v -0.6 0.8 -1.2
v -0.5 0.3 -1.2
v -0.5 0.4 -1.2
v -0.5 0.6 -1.2
v -0.5 0.8 -1.2
v -0.4 0.4 -1.2
v -0.4 0.5 -1.2
v -0.4 0.9 -1.2
v -0.8 0.3 -1.3
v -0.8 0.4 -1.3
v -0.7 0.3 -1.3
v -0.7 0.4 -1.3
v -0.9 0.4 -1.4
v -0.9 0.5 -1.4
v -0.9 0.6 -1.4
v -0.8 0.5 -1.4
v -0.8 0.6 -1.4
v -0.7 0.5 -1.4
v -0.7 0.6 -1.4
v -0.6 0.4 -1.4
v -0.6 0.5 -1.4
v -0.6 0.6 -1.4
v -0.8 0.5 -1.5
v -0.8 0.6 -1.5
v -0.7 0.5 -1.5
v -0.7 0.6 -1.5
v -1.1 0 -0.4
v -1 0 -0.4
v -0.5 0 -0.4
v -0.4 0 -0.4
v -1.1 0 -0.6
v -1 0 -0.6
v -0.5 0 -0.6
v -0.4 0 -0.6
v -1 0 -0.9
v -0.9 0 -0.9
v -0.6 0 -0.9
v -0.5 0 -0.9
v -1 0 -1.1
v -0.9 0 -1.1
v -0.6 0 -1.1
v -0.5 0 -1.1
v -1 0.3 -0.3
v -0.5 0.3 -0.3
v -1 0.3 -0.4
v -0.5 0.3 -0.4
v -1.1 0.3 -0.5
v -1 0.3 -0.5
v -0.5 0.3 -0.5
v -0.4 0.3 -0.5
v -1.1 0.3 -0.6
v -1 0.3 -0.6
v -0.5 0.3 -0.6
v -0.4 0.3 -0.6
v -1 0.3 -0.9
v -0.9 0.3 -0.9
v -0.6 0.3 -0.9
v -0.5 0.3 -0.9
v -1 0.3 -1
v -0.9 0.3 -1
v -0.6 0.3 -1
v -0.5 0.3 -1
v -1 0.3 -1.2
v -0.8 0.3 -1.2
v -0.7 0.3 -1.2
v -0.5 0.3 -1.2
v -0.8 0.3 -1.3
v -0.7 0.3 -1.3
v -1.1 0.4 -0.3
v -1 0.4 -0.3
v -0.5 0.4 -0.3
v -0.4 0.4 -0.3
v -1.1 0.4 -0.4
v -1 0.4 -0.4
v -0.5 0.4 -0.4
v -0.4 0.4 -0.4
v -1.1 0.4 -0.9
v -1 0.4 -0.9
v -0.5 0.4 -0.9
v -0.4 0.4 -0.9
v -1 0.4 -1
v -0.5 0.4 -1
v -1.1 0.4 -1.1
v -1 0.4 -1.1
v -0.5 0.4 -1.1
v -0.4 0.4 -1.1
v -1.1 0.4 -1.2
v -1 0.4 -1.2
v -0.9 0.4 -1.2
v -0.8 0.4 -1.2
v -0.7 0.4 -1.2
v -0.6 0.4 -1.2
v -0.5 0.4 -1.2
v -0.4 0.4 -1.2
v -0.8 0.4 -1.3
v -0.7 0.4 -1.3
v -0.9 0.4 -1.4
v -0.6 0.4 -1.4
v -0.8 0.5 0.2
v -0.7 0.5 0.2
v -0.8 0.5 0.0999999
v -0.7 0.5 0.0999999
v -0.8 0.5 -5.96046e-08
v -0.7 0.5 -5.96046e-08
v -0.8 0.5 -0.1
v -0.7 0.5 -0.1
v -0.8 0.5 -1.4
v -0.7 0.5 -1.4
v -0.8 0.5 -1.5
v -0.7 0.5 -1.5
v -0.8 0.6 -0.1
v -0.7 0.6 -0.1
v -0.8 0.6 -0.3
v -0.7 0.6 -0.3
v -1.1 0.1 -0.5
v -1 0.1 -0.5
v -0.5 0.1 -0.5
v -0.4 0.1 -0.5
v -1.1 0.1 -0.6
v -1 0.1 -0.6
v -0.5 0.1 -0.6
v -0.4 0.1 -0.6
v -1 0.1 -1
v -0.9 0.1 -1
v -0.6 0.1 -1
v -0.5 0.1 -1
v -1 0.1 -1.1
v -0.9 0.1 -1.1
v -0.6 0.1 -1.1
v -0.5 0.1 -1.1
v -1.1 0.5 -0.5
v -1 0.5 -0.5
v -0.5 0.5 -0.5
v -0.4 0.5 -0.5
v -1.1 0.5 -0.6
v -1 0.5 -0.6
v -0.5 0.5 -0.6
v -0.4 0.5 -0.6
v -0.8 0.6 0.2
v -0.7 0.6 0.2
v -0.8 0.6 0.0999999
v -0.7 0.6 0.0999999
v -0.8 0.6 -5.96046e-08
v -0.7 0.6 -5.96046e-08
v -1.1 0.6 -0.3
v -1 0.6 -0.3
v -0.5 0.6 -0.3
v -0.4 0.6 -0.3
v -1.1 0.6 -0.5
v -1 0.6 -0.5
v -0.5 0.6 -0.5
v -0.4 0.6 -0.5
v -0.9 0.6 -1.2
v -0.8 0.6 -1.2
v -0.7 0.6 -1.2
v -0.6 0.6 -1.2
v -0.9 0.6 -1.4
v -0.8 0.6 -1.4
v -0.7 0.6 -1.4
v -0.6 0.6 -1.4
v -0.8 0.6 -1.5
v -0.7 0.6 -1.5
v -0.8 0.7 -5.96046e-08
v -0.7 0.7 -5.96046e-08
v -1 0.7 -0.3
v -0.8 0.7 -0.3
v -0.7 0.7 -0.3
v -0.5 0.7 -0.3
v -0.8 0.7 -0.7
v -0.7 0.7 -0.7
v -0.9 0.7 -0.8
v -0.8 0.7 -0.8
v -0.7 0.7 -0.8
v -0.6 0.7 -0.8
v -1 0.7 -0.9
v -0.9 0.7 -0.9
v -0.6 0.7 -0.9
v -0.5 0.7 -0.9
v -0.8 0.8 -0.7
v -0.7 0.8 -0.7
v -0.9 0.8 -0.8
v -0.8 0.8 -0.8
v -0.7 0.8 -0.8
v -0.6 0.8 -0.8
v -0.9 0.8 -0.9
v -0.8 0.8 -0.9
v -0.7 0.8 -0.9
v -0.6 0.8 -0.9
v -0.8 0.9 -0.8
v -0.7 0.9 -0.8
v -0.9 0.9 -0.9
v -0.8 0.9 -0.9
v -0.7 0.9 -0.9
v -0.6 0.9 -0.9
v -1.1 0.9 -1
v -0.9 0.9 -1
v -0.6 0.9 -1
v -0.4 0.9 -1
v -1.1 0.9 -1.2
v -0.4 0.9 -1.2
v -1 1 -0.9
v -0.9 1 -0.9
v -0.6 1 -0.9
v -0.5 1 -0.9
v -1 1 -1
v -0.9 1 -1
v -0.6 1 -1
v -0.5 1 -1
v -1.1 1.1 -0.9
v -1 1.1 -0.9
v -0.5 1.1 -0.9
v -0.4 1.1 -0.9
v -1.1 1.1 -1
v -1 1.1 -1
v -0.5 1.1 -1
v -0.4 1.1 -1

# faces
f 3/1/1 2/1/1 1/1/1
f 4/1/1 2/1/1 3/1/1
f 5/1/1 3/1/1 1/1/1
f 6/1/1 3/1/1 5/1/1
f 7/2/1 6/2/1 5/2/1
f 10/2/1 7/2/1 5/2/1
f 10/2/1 8/2/1 7/2/1
f 14/2/1 10/2/1 9/2/1
f 14/2/1 8/2/1 10/2/1
f 15/2/1 8/2/1 14/2/1
f 16/3/1 13/3/1 12/3/1
f 16/2/1 12/2/1 11/2/1
f 17/3/1 13/3/1 16/3/1
f 18/2/1 14/2/1 9/2/1
f 19/2/1 14/2/1 18/2/1
f 20/2/1 17/2/1 16/2/1
f 20/2/1 16/2/1 11/2/1
f 21/2/1 17/2/1 20/2/1
f 22/2/1 17/2/1 21/2/1
f 23/1/1 21/1/1 20/1/1
f 24/1/1 21/1/1 23/1/1
f 27/1/1 26/1/1 25/1/1
f 28/1/1 26/1/1 27/1/1
f 29/1/1 27/1/1 25/1/1
f 30/1/1 27/1/1 29/1/1
f 34/2/1 30/2/1 29/2/1
f 35/2/1 30/2/1 34/2/1
f 37/2/1 32/2/1 31/2/1
f 38/2/1 32/2/1 37/2/1
f 39/2/1 35/2/1 34/2/1
f 39/2/1 34/2/1 33/2/1
f 40/3/1 36/3/1 35/3/1
f 40/2/1 35/2/1 39/2/1
f 41/3/1 36/3/1 40/3/1
f 42/3/1 36/3/1 41/3/1
f 44/2/1 39/2/1 33/2/1
f 46/2/1 44/2/1 43/2/1
f 47/2/1 46/2/1 45/2/1
f 48/2/1 39/2/1 44/2/1
f 48/2/1 46/2/1 47/2/1
f 48/2/1 44/2/1 46/2/1
f 51/3/1 50/3/1 49/3/1
f 52/3/1 50/3/1 51/3/1
f 53/2/1 52/2/1 51/2/1
f 54/2/1 52/2/1 53/2/1
f 57/2/1 56/2/1 55/2/1
f 58/2/1 56/2/1 57/2/1
f 61/3/1 60/3/1 59/3/1
f 62/3/1 60/3/1 61/3/1
f 69/1/1 64/1/1 63/1/1
f 70/3/1 65/3/1 64/3/1
f 70/1/1 64/1/1 69/1/1
f 71/2/1 66/2/1 65/2/1
f 71/3/1 65/3/1 70/3/1
f 72/2/1 66/2/1 71/2/1
f 74/1/1 68/1/1 67/1/1
f 75/1/1 68/1/1 74/1/1
f 76/2/1 73/2/1 72/2/1
f 76/2/1 72/2/1 71/2/1
f 77/2/1 73/2/1 76/2/1
f 80/2/1 79/2/1 78/2/1
f 81/2/1 79/2/1 80/2/1
f 83/2/1 82/2/1 81/2/1
f 84/2/1 82/2/1 83/2/1
f 87/1/1 86/1/1 85/1/1
f 88/1/1 86/1/1 87/1/1
f 89/1/1 87/1/1 85/1/1
f 90/1/1 87/1/1 89/1/1
f 91/2/1 90/2/1 89/2/1
f 92/2/1 90/2/1 91/2/1
f 95/1/1 94/1/1 93/1/1
f 96/1/1 94/1/1 95/1/1
f 99/1/1 98/1/1 97/1/1
f 100/1/1 98/1/1 99/1/1
f 101/1/1 99/1/1 97/1/1
f 102/1/1 99/1/1 101/1/1
f 103/2/1 102/2/1 101/2/1
f 104/2/1 102/2/1 103/2/1
f 107/1/1 106/1/1 105/1/1
f 108/1/1 106/1/1 107/1/1
f 109/1/2 110/1/2 111/1/2
f 111/1/2 110/1/2 112/1/2
f 109/1/2 111/1/2 113/1/2
f 113/1/2 111/1/2 114/1/2
f 113/2/2 114/2/2 115/2/2
f 115/2/2 114/2/2 116/2/2
f 117/1/2 118/1/2 119/1/2
f 119/1/2 118/1/2 120/1/2
f 121/1/2 122/1/2 123/1/2
f 123/1/2 122/1/2 124/1/2
f 121/1/2 123/1/2 125/1/2
f 125/1/2 123/1/2 126/1/2
f 125/2/2 126/2/2 127/2/2
f 127/2/2 126/2/2 128/2/2
f 129/1/2 130/1/2 131/1/2
f 131/1/2 130/1/2 132/1/2
f 133/3/2 134/3/2 135/3/2
f 135/3/2 134/3/2 136/3/2
f 137/1/2 138/1/2 143/1/2
f 138/3/2 139/3/2 144/3/2
f 143/1/2 138/1/2 144/1/2
f 139/2/2 140/2/2 145/2/2
f 144/3/2 139/3/2 145/3/2
f 145/2/2 140/2/2 146/2/2
f 141/1/2 142/1/2 148/1/2
f 148/1/2 142/1/2 149/1/2
f 146/2/2 147/2/2 150/2/2
f 145/2/2 146/2/2 150/2/2
f 150/2/2 147/2/2 151/2/2
f 152/2/2 153/2/2 154/2/2
f 154/2/2 153/2/2 155/2/2
f 155/2/2 156/2/2 157/2/2
f 157/2/2 156/2/2 158/2/2
f 159/3/2 160/3/2 161/3/2
f 161/3/2 160/3/2 162/3/2
f 161/2/2 162/2/2 163/2/2
f 163/2/2 162/2/2 164/2/2
f 165/2/2 166/2/2 167/2/2
f 167/2/2 166/2/2 168/2/2
f 169/1/2 170/1/2 171/1/2
f 171/1/2 170/1/2 172/1/2
f 169/1/2 171/1/2 173/1/2
f 173/1/2 171/1/2 174/1/2
f 173/2/2 174/2/2 178/2/2
f 178/2/2 174/2/2 179/2/2
f 175/2/2 176/2/2 181/2/2
f 181/2/2 176/2/2 182/2/2
f 178/2/2 179/2/2 183/2/2
f 177/2/2 178/2/2 183/2/2
f 179/3/2 180/3/2 184/3/2
f 183/2/2 179/2/2 184/2/2
f 184/3/2 180/3/2 185/3/2
f 185/3/2 180/3/2 186/3/2
f 177/2/2 183/2/2 188/2/2
f 187/2/2 188/2/2 190/2/2
f 189/2/2 190/2/2 191/2/2
f 188/2/2 183/2/2 192/2/2
f 191/2/2 190/2/2 192/2/2
f 190/2/2 188/2/2 192/2/2
f 193/1/2 194/1/2 195/1/2
f 195/1/2 194/1/2 196/1/2
f 193/1/2 195/1/2 197/1/2
f 197/1/2 195/1/2 198/1/2
f 197/2/2 198/2/2 199/2/2
f 197/2/2 199/2/2 202/2/2
f 199/2/2 200/2/2 202/2/2
f 201/2/2 202/2/2 206/2/2
f 202/2/2 200/2/2 206/2/2
f 206/2/2 200/2/2 207/2/2
f 204/3/2 205/3/2 208/3/2
f 203/2/2 204/2/2 208/2/2
f 208/3/2 205/3/2 209/3/2
f 201/2/2 206/2/2 210/2/2
f 210/2/2 206/2/2 211/2/2
f 208/2/2 209/2/2 212/2/2
f 203/2/2 208/2/2 212/2/2
f 212/2/2 209/2/2 213/2/2
f 213/2/2 209/2/2 214/2/2
f 212/1/2 213/1/2 215/1/2
f 215/1/2 213/1/2 216/1/2
f 219/1/3 218/1/3 217/1/3
f 220/1/3 218/1/3 219/1/3
f 223/2/3 222/2/3 221/2/3
f 224/2/3 222/2/3 223/2/3
f 228/2/3 226/2/3 225/2/3
f 229/2/3 226/2/3 228/2/3
f 231/2/3 228/2/3 227/2/3
f 231/2/3 230/2/3 229/2/3
f 231/2/3 229/2/3 228/2/3
f 232/2/3 230/2/3 231/2/3
f 233/2/3 231/2/3 227/2/3
f 235/2/3 233/2/3 227/2/3
f 235/2/3 234/2/3 233/2/3
f 236/2/3 234/2/3 235/2/3
f 237/2/3 234/2/3 236/2/3
f 238/2/3 234/2/3 237/2/3
f 239/2/3 237/2/3 236/2/3
f 240/2/3 237/2/3 239/2/3
f 244/1/3 242/1/3 241/1/3
f 245/2/3 243/2/3 242/2/3
f 245/1/3 242/1/3 244/1/3
f 246/2/3 243/2/3 245/2/3
f 247/2/3 243/2/3 246/2/3
f 252/1/3 249/1/3 248/1/3
f 253/2/3 251/2/3 250/2/3
f 253/1/3 249/1/3 252/1/3
f 253/2/3 250/2/3 249/2/3
f 254/2/3 251/2/3 253/2/3
f 257/2/3 256/2/3 255/2/3
f 258/2/3 256/2/3 257/2/3
f 261/2/3 260/2/3 259/2/3
f 262/2/3 260/2/3 261/2/3
f 265/2/3 263/2/3 262/2/3
f 266/2/3 263/2/3 265/2/3
f 267/2/3 265/2/3 264/2/3
f 268/2/3 265/2/3 267/2/3
f 275/2/3 270/2/3 269/2/3
f 276/2/3 270/2/3 275/2/3
f 277/1/3 271/1/3 270/1/3
f 278/1/3 271/1/3 277/1/3
f 279/1/3 273/1/3 272/1/3
f 280/2/3 274/2/3 273/2/3
f 280/1/3 273/1/3 279/1/3
f 281/2/3 274/2/3 280/2/3
f 282/2/3 270/2/3 276/2/3
f 283/2/3 270/2/3 282/2/3
f 284/1/3 277/1/3 270/1/3
f 284/2/3 270/2/3 283/2/3
f 285/1/3 277/1/3 284/1/3
f 286/2/3 284/2/3 283/2/3
f 287/2/3 284/2/3 286/2/3
f 294/2/3 289/2/3 288/2/3
f 295/2/3 289/2/3 294/2/3
f 297/1/3 291/1/3 290/1/3
f 298/2/3 292/2/3 291/2/3
f 298/1/3 291/1/3 297/1/3
f 299/2/3 292/2/3 298/2/3
f 301/2/3 295/2/3 294/2/3
f 301/2/3 294/2/3 293/2/3
f 302/1/3 296/1/3 295/1/3
f 304/2/3 301/2/3 300/2/3
f 305/1/3 302/1/3 295/1/3
f 305/2/3 301/2/3 304/2/3
f 305/1/3 303/1/3 302/1/3
f 305/2/3 295/2/3 301/2/3
f 306/1/3 303/1/3 305/1/3
f 307/2/4 308/2/4 309/2/4
f 309/2/4 308/2/4 310/2/4
f 311/1/4 312/1/4 316/1/4
f 312/2/4 313/2/4 317/2/4
f 316/1/4 312/1/4 317/1/4
f 317/2/4 313/2/4 318/2/4
f 314/2/4 315/2/4 319/2/4
f 319/2/4 315/2/4 320/2/4
f 321/1/4 322/1/4 326/1/4
f 322/2/4 323/2/4 327/2/4
f 326/1/4 322/1/4 327/1/4
f 327/2/4 323/2/4 328/2/4
f 324/2/4 325/2/4 329/2/4
f 329/2/4 325/2/4 330/2/4
f 331/1/4 332/1/4 335/1/4
f 335/1/4 332/1/4 336/1/4
f 333/2/4 334/2/4 337/2/4
f 337/2/4 334/2/4 338/2/4
f 339/1/4 340/1/4 343/1/4
f 343/1/4 340/1/4 344/1/4
f 341/2/4 342/2/4 345/2/4
f 345/2/4 342/2/4 346/2/4
f 347/1/4 348/1/4 352/1/4
f 352/1/4 348/1/4 353/1/4
f 349/1/4 350/1/4 354/1/4
f 350/2/4 351/2/4 355/2/4
f 354/1/4 350/1/4 355/1/4
f 355/2/4 351/2/4 356/2/4
f 347/1/4 352/1/4 357/1/4
f 357/1/4 352/1/4 358/1/4
f 359/1/4 360/1/4 364/1/4
f 360/2/4 361/2/4 365/2/4
f 364/1/4 360/1/4 365/1/4
f 365/2/4 361/2/4 366/2/4
f 362/1/4 363/1/4 367/1/4
f 362/1/4 367/1/4 369/1/4
f 367/1/4 368/1/4 369/1/4
f 369/1/4 368/1/4 370/1/4
f 371/1/4 372/1/4 373/1/4
f 373/1/4 372/1/4 374/1/4
f 375/1/4 376/1/4 377/1/4
f 377/1/4 376/1/4 378/1/4
f 379/3/4 380/3/4 383/3/4
f 380/2/4 381/2/4 384/2/4
f 384/2/4 381/2/4 385/2/4
f 382/3/4 383/3/4 386/3/4
f 383/3/4 380/3/4 386/3/4
f 380/2/4 384/2/4 387/2/4
f 386/3/4 380/3/4 387/3/4
f 384/4/4 385/4/4 388/4/4
f 387/2/4 384/2/4 388/2/4
f 385/2/4 381/2/4 389/2/4
f 388/4/4 385/4/4 389/4/4
f 382/3/4 386/3/4 390/3/4
f 390/3/4 386/3/4 391/3/4
f 388/1/4 389/1/4 392/1/4
f 389/2/4 381/2/4 393/2/4
f 392/1/4 389/1/4 393/1/4
f 392/2/4 393/2/4 396/2/4
f 393/2/4 381/2/4 397/2/4
f 396/2/4 393/2/4 397/2/4
f 394/3/4 395/3/4 398/3/4
f 396/1/4 397/1/4 400/1/4
f 397/2/4 381/2/4 401/2/4
f 400/1/4 397/1/4 401/1/4
f 398/3/4 399/3/4 402/3/4
f 394/3/4 398/3/4 402/3/4
f 402/3/4 399/3/4 403/3/4
f 399/2/4 400/2/4 404/2/4
f 400/4/4 401/4/4 404/4/4
f 401/2/4 381/2/4 405/2/4
f 404/4/4 401/4/4 405/4/4
f 403/3/4 399/3/4 406/3/4
f 399/2/4 404/2/4 407/2/4
f 406/3/4 399/3/4 407/3/4
f 404/2/4 405/2/4 407/2/4
f 405/2/4 381/2/4 408/2/4
f 407/2/4 405/2/4 408/2/4
f 409/3/4 410/3/4 411/3/4
f 411/3/4 410/3/4 412/3/4
f 413/3/4 414/3/4 416/3/4
f 414/2/4 415/2/4 416/2/4
f 416/2/4 415/2/4 417/2/4
f 413/3/4 416/3/4 418/3/4
f 413/3/4 418/3/4 420/3/4
f 418/2/4 419/2/4 421/2/4
f 420/3/4 418/3/4 421/3/4
f 421/2/4 419/2/4 422/2/4
f 423/1/4 424/1/4 425/1/4
f 425/1/4 424/1/4 426/1/4
f 431/1/5 428/1/5 427/1/5
f 432/1/5 428/1/5 431/1/5
f 433/1/5 430/1/5 429/1/5
f 434/1/5 430/1/5 433/1/5
f 439/1/5 436/1/5 435/1/5
f 440/1/5 436/1/5 439/1/5
f 441/1/5 438/1/5 437/1/5
f 442/1/5 438/1/5 441/1/5
f 445/2/5 444/2/5 443/2/5
f 446/2/5 444/2/5 445/2/5
f 448/2/5 446/2/5 445/2/5
f 449/2/5 446/2/5 448/2/5
f 451/2/5 449/2/5 448/2/5
f 451/2/5 450/2/5 449/2/5
f 451/2/5 448/2/5 447/2/5
f 452/2/5 450/2/5 451/2/5
f 453/2/5 450/2/5 452/2/5
f 454/2/5 450/2/5 453/2/5
f 455/2/5 453/2/5 452/2/5
f 456/2/5 453/2/5 455/2/5
f 457/2/5 453/2/5 456/2/5
f 458/2/5 453/2/5 457/2/5
f 460/2/5 457/2/5 456/2/5
f 461/2/5 457/2/5 460/2/5
f 463/3/5 460/3/5 459/3/5
f 463/3/5 462/3/5 461/3/5
f 463/3/5 461/3/5 460/3/5
f 464/3/5 462/3/5 463/3/5
f 465/3/5 462/3/5 464/3/5
f 466/3/5 462/3/5 465/3/5
f 467/3/5 465/3/5 464/3/5
f 468/3/5 465/3/5 467/3/5
f 473/2/5 470/2/5 469/2/5
f 474/2/5 470/2/5 473/2/5
f 475/2/5 472/2/5 471/2/5
f 476/2/5 472/2/5 475/2/5
f 481/2/5 478/2/5 477/2/5
f 482/2/5 480/2/5 479/2/5
f 483/2/5 481/2/5 477/2/5
f 484/2/5 481/2/5 483/2/5
f 485/2/5 480/2/5 482/2/5
f 486/2/5 480/2/5 485/2/5
f 487/3/5 484/3/5 483/3/5
f 488/3/5 484/3/5 487/3/5
f 493/3/5 486/3/5 485/3/5
f 494/3/5 486/3/5 493/3/5
f 495/3/5 490/3/5 489/3/5
f 496/3/5 492/3/5 491/3/5
f 497/3/5 495/3/5 489/3/5
f 497/3/5 496/3/5 495/3/5
f 498/3/5 492/3/5 496/3/5
f 498/3/5 496/3/5 497/3/5
f 501/1/5 500/1/5 499/1/5
f 502/1/5 500/1/5 501/1/5
f 503/3/5 502/3/5 501/3/5
f 504/3/5 502/3/5 503/3/5
f 505/2/5 504/2/5 503/2/5
f 506/2/5 504/2/5 505/2/5
f 509/1/5 508/1/5 507/1/5
f 510/1/5 508/1/5 509/1/5
f 513/2/5 512/2/5 511/2/5
f 514/2/5 512/2/5 513/2/5
f 515/1/6 516/1/6 519/1/6
f 519/1/6 516/1/6 520/1/6
f 517/1/6 518/1/6 521/1/6
f 521/1/6 518/1/6 522/1/6
f 523/1/6 524/1/6 527/1/6
f 527/1/6 524/1/6 528/1/6
f 525/1/6 526/1/6 529/1/6
f 529/1/6 526/1/6 530/1/6
f 531/2/6 532/2/6 535/2/6
f 535/2/6 532/2/6 536/2/6
f 533/2/6 534/2/6 537/2/6
f 537/2/6 534/2/6 538/2/6
f 539/1/6 540/1/6 541/1/6
f 541/1/6 540/1/6 542/1/6
f 541/3/6 542/3/6 543/3/6
f 543/3/6 542/3/6 544/3/6
f 545/2/6 546/2/6 549/2/6
f 549/2/6 546/2/6 550/2/6
f 547/2/6 548/2/6 551/2/6
f 551/2/6 548/2/6 552/2/6
f 553/2/6 554/2/6 557/2/6
f 555/2/6 556/2/6 557/2/6
f 554/2/6 555/2/6 557/2/6
f 557/2/6 556/2/6 558/2/6
f 558/2/6 556/2/6 559/2/6
f 559/2/6 556/2/6 560/2/6
f 558/1/6 559/1/6 561/1/6
f 561/1/6 559/1/6 562/1/6
f 563/2/6 564/2/6 566/2/6
f 566/2/6 564/2/6 567/2/6
f 565/2/6 566/2/6 569/2/6
f 567/2/6 568/2/6 569/2/6
f 566/2/6 567/2/6 569/2/6
f 569/2/6 568/2/6 570/2/6
f 565/2/6 569/2/6 571/2/6
f 571/2/6 569/2/6 572/2/6
f 570/2/6 568/2/6 573/2/6
f 573/2/6 568/2/6 574/2/6
f 565/2/6 571/2/6 575/2/6
f 575/2/6 571/2/6 576/2/6
f 574/2/6 568/2/6 577/2/6
f 577/2/6 568/2/6 578/2/6
f 579/2/6 580/2/6 582/2/6
f 582/2/6 580/2/6 583/2/6
f 581/2/6 582/2/6 585/2/6
f 585/2/6 582/2/6 586/2/6
f 583/2/6 584/2/6 587/2/6
f 587/2/6 584/2/6 588/2/6
f 589/2/6 590/2/6 592/2/6
f 592/2/6 590/2/6 593/2/6
f 591/2/6 592/2/6 596/2/6
f 593/2/6 594/2/6 596/2/6
f 592/2/6 593/2/6 596/2/6
f 596/2/6 594/2/6 597/2/6
f 595/2/6 596/2/6 599/2/6
f 597/2/6 598/2/6 599/2/6
f 596/2/6 597/2/6 599/2/6
f 599/2/6 598/2/6 600/2/6
f 601/1/6 602/1/6 605/1/6
f 605/1/6 602/1/6 606/1/6
f 603/1/6 604/1/6 607/1/6
f 607/1/6 604/1/6 608/1/6
f 609/1/6 610/1/6 613/1/6
f 613/1/6 610/1/6 614/1/6
f 611/1/6 612/1/6 615/1/6
f 615/1/6 612/1/6 616/1/6
